<svg version="1.2" baseProfile="tiny-ps" xmlns="http://www.w3.org/2000/svg" viewBox="0 0 288 216" width="288" height="216">
	<title>New Project</title>
	<style>
		tspan { white-space:pre }
	</style>
	<path id="JACOB'S APP " fill="#000000" aria-label="JACOB'S APP"  d="M21.93 72.76Q22.38 66.15 22.47 57.54Q22.56 48.89 22.71 39.98Q22.88 31.03 23.49 23.1Q23.49 22.57 24.09 21.59Q24.7 20.61 25.11 20.61L33.79 20.61Q32.45 32.13 32.09 39.15Q31.74 46.17 31.53 50.25Q31.33 54.33 31.14 57.05Q30.96 59.77 30.57 62.37Q30.18 64.94 29.58 66.56Q28.98 68.15 27.96 69.51Q26.17 71.92 21.93 72.76ZM14.38 58.75Q14.43 58.18 15.01 57.24Q15.61 56.25 16 56.25Q16.8 60.75 17.86 63.88Q18.94 67.02 20.61 69.28Q20.55 71.28 20.28 72.76Q16.94 72.76 13.61 69.89Q13.67 64.98 14.38 58.75ZM56.88 72L48.22 72Q46.77 48.51 44.56 31.22Q45.64 26.76 46.4 23.06Q46.53 22.5 47.07 21.55Q47.63 20.61 48.02 20.61L53.94 20.61Q54.7 32.01 55.98 46.02Q57.29 59.99 58.52 69.51Q58.52 70 57.92 71.02Q57.32 72 56.88 72ZM42.01 64.11L42.01 65.32L42.07 69.51Q42.07 70 41.45 71.02Q40.86 72 40.43 72L34.49 72Q37.43 61.88 43.61 34.92Q43.78 35.9 43.78 37.68Q43.78 39.41 43.52 42.74Q43.28 46.06 42.88 50.59Q42.49 55.08 42.31 57.88Q44.99 58.71 46.2 59.73Q46.2 61.99 45.82 63.09Q43.89 63.43 42.01 64.11ZM84.14 43.49Q83.43 36.47 82.5 31.82Q81.57 27.14 79.82 23.1Q79.86 22.42 80.45 21.51Q81.05 20.61 81.46 20.61Q84.7 21.33 87.49 23.33Q87.45 25.52 87.02 31.48Q86.59 37.45 86.19 40.96Q86.11 41.57 85.35 42.55Q84.58 43.49 84.14 43.49ZM85.87 52.93Q85.52 60.75 84.7 68.56Q83.65 70.45 81.27 71.62Q78.89 72.76 75.82 72.76Q78.52 68.83 80.14 64.9Q81.78 60.94 83.45 55.08Q83.86 54.25 84.62 53.61Q85.4 52.93 85.87 52.93ZM74.67 70.19Q74.67 70.75 74.07 71.77Q73.48 72.76 73.03 72.76Q69.03 71.28 66.24 65.35Q64.88 62.45 64.08 58.41Q63.3 54.33 63.3 49.76Q63.3 45.15 63.86 40.89Q64.41 36.58 65.6 32.73Q66.81 28.84 68.53 25.93Q72.21 19.63 78 19.63Q78.44 19.63 78.7 19.66Q75.99 24.42 74.44 33.41Q72.92 42.36 72.92 52.78Q72.92 63.16 74.67 70.19ZM102.02 72.76Q104.74 68.15 106.06 59.31Q107.4 50.48 107.4 40.73Q107.4 30.95 106.41 23.06Q106.41 22.53 107.01 21.55Q107.62 20.53 108.05 20.53Q110.75 21.59 112.65 25.1Q116.26 31.79 116.26 43.64Q116.26 52.67 114.02 59.92Q111.55 68.04 107.21 71.09Q104.83 72.76 102.02 72.76ZM105.72 19.63Q102.99 24.27 101.65 33.07Q100.31 41.87 100.31 51.68Q100.31 61.5 101.33 69.28Q101.33 69.81 100.72 70.83Q100.12 71.85 99.68 71.85Q95.58 70.19 93.48 63.54Q91.47 57.16 91.47 48.78Q91.47 39.75 93.7 32.43Q96.16 24.38 100.51 21.33Q102.9 19.63 105.72 19.63ZM119.68 71.85Q122.14 51.8 123.31 23.48Q123.31 23.02 123.9 22.08Q124.5 21.1 124.93 21.06Q130.51 20.12 133.43 20.12Q130.77 43.38 129.76 69.77Q129.76 70.3 129.17 71.32Q128.57 72.3 128.13 72.3Q124.89 72.3 119.68 71.85ZM130.81 72.08Q132.85 70.6 134.4 65.88Q135.94 61.13 135.94 56.33Q135.94 49.83 133 47.38Q132.7 47 132.7 46.13Q132.7 44.1 133.3 43.76Q134.62 43.04 135.55 39Q136.48 34.92 136.48 29.97Q136.48 24.99 134.92 22.65Q134.92 22.08 135.55 21.06Q136.18 20.04 136.63 20.04Q142.55 20.83 144.26 27.59Q144.78 29.63 144.78 32.24Q144.78 34.84 144.13 37.07Q143.5 39.3 142.49 40.81Q141.51 42.28 140.17 43.42Q137.75 45.45 135.03 46.02Q136.15 45.87 136.85 45.87Q140.39 45.87 142.4 48.89Q144.41 51.87 144.41 57.42Q144.41 60.63 143.72 63.28Q143.05 65.92 141.95 67.66Q140.87 69.36 139.42 70.57Q136.76 72.76 133.52 72.76Q132.11 72.76 130.81 72.08ZM152.15 36.81L149.36 36.81Q149.71 30.99 149.81 22.38Q149.81 21.85 150.4 20.87Q151 19.85 151.42 19.85L155.46 19.85Q154.59 26.73 153.77 34.32Q153.68 35.11 153.14 35.98Q152.62 36.81 152.15 36.81ZM169.27 19.17Q167.8 21.7 167.8 25.33Q167.8 28.92 168.77 32.54Q169.75 36.13 171.06 38.66Q172.36 41.19 173.07 42.7Q173.79 44.17 174.68 46.29Q175.6 48.36 176.12 50.02Q177.4 54.06 177.4 57.12Q177.4 60.14 176.77 62.75Q176.15 65.35 175 67.51Q173.87 69.62 172.08 71.02Q170.31 72.42 168.17 72.6Q168.77 70.87 168.77 68.98Q168.77 67.05 168.38 65.09Q167.99 63.09 167.19 60.82Q165.9 57.16 164.3 53.65Q162.72 50.14 162.09 48.63Q161.47 47.12 160.69 44.81Q159.17 40.36 159.17 35.86Q159.17 31.37 160.52 27.52Q161.88 23.67 164.19 21.44Q166.52 19.21 169.27 19.17ZM175.47 41.98Q175.47 38.32 174.81 34.43Q173.53 26.84 170.53 22.19Q170.57 21.51 171.17 20.57Q171.76 19.63 172.15 19.63Q173.51 19.63 175.32 20.72Q177.14 21.82 178.2 22.84Q178.29 23.97 178.29 26.8Q178.29 29.6 178.03 33.82Q177.77 38.02 177.4 40.47Q177.29 41.04 176.6 41.53Q175.93 41.98 175.47 41.98ZM166.55 69.32Q166.33 71.89 165.86 72.76Q163.91 72.76 161.25 71.74Q158.59 70.72 157.38 69.13Q157.36 68.3 157.36 66.75Q157.36 59.39 158.22 52.78Q158.29 52.18 158.85 51.27Q159.41 50.33 159.85 50.33Q160.28 54.48 161.38 58.67Q162.5 62.86 163.89 65.77Q165.31 68.64 166.55 69.32ZM214.52 72L205.87 72Q204.42 48.51 202.21 31.22Q203.28 26.76 204.05 23.06Q204.18 22.5 204.72 21.55Q205.28 20.61 205.67 20.61L211.58 20.61Q212.35 32.01 213.63 46.02Q214.93 59.99 216.16 69.51Q216.16 70 215.57 71.02Q214.97 72 214.52 72ZM199.66 64.11L199.66 65.32L199.71 69.51Q199.71 70 199.1 71.02Q198.5 72 198.07 72L192.14 72Q195.08 61.88 201.26 34.92Q201.42 35.9 201.42 37.68Q201.42 39.41 201.16 42.74Q200.92 46.06 200.53 50.59Q200.14 55.08 199.95 57.88Q202.63 58.71 203.84 59.73Q203.84 61.99 203.47 63.09Q201.54 63.43 199.66 64.11ZM233.26 54.67Q235.16 50.51 236.22 45.3Q237.3 40.09 237.3 34.2Q237.3 28.27 235.77 22.61Q235.77 22.08 236.37 21.06Q236.98 20.04 237.41 20.04Q241.52 20.61 243.85 24.95Q246.18 29.26 246.18 35.98Q246.18 40.13 245.21 43.76Q244.26 47.38 242.7 49.8Q239.31 54.93 234.97 54.93Q233.91 54.93 233.26 54.67ZM230.84 69.47Q230.84 70 230.25 71.02Q229.65 72 229.21 72L220.76 72Q223.31 51.16 224.39 23.48Q224.39 22.99 224.98 22.04Q225.58 21.06 226.01 21.02Q231.96 20.12 234.53 20.12Q231.87 43.26 230.84 69.47ZM261.83 54.67Q263.72 50.51 264.78 45.3Q265.86 40.09 265.86 34.2Q265.86 28.27 264.34 22.61Q264.34 22.08 264.93 21.06Q265.55 20.04 265.98 20.04Q270.09 20.61 272.41 24.95Q274.74 29.26 274.74 35.98Q274.74 40.13 273.77 43.76Q272.82 47.38 271.26 49.8Q267.87 54.93 263.54 54.93Q262.48 54.93 261.83 54.67ZM259.41 69.47Q259.41 70 258.81 71.02Q258.22 72 257.77 72L249.32 72Q251.87 51.16 252.95 23.48Q252.95 22.99 253.55 22.04Q254.14 21.06 254.57 21.02Q260.52 20.12 263.09 20.12Q260.43 43.26 259.41 69.47Z" />
</svg>